<svg xmlns="http://www.w3.org/2000/svg" style="display: none;">
	<symbol id="app-icon" viewBox="0 0 2048 2048">
		<path fill="currentColor" d="M347 1024h-39l716 716l588-588h181l-769 769l-865-864q-35-35-62-75t-47-86h243l283-282l448 447l320-319l155 154h355q32-51 49-108t17-117q0-87-32-162t-89-130t-132-87t-163-32q-84 0-149 26t-120 70t-105 97t-106 111q-54-54-105-109t-106-99t-121-72t-148-28q-86 0-161 32t-132 89t-89 132t-33 162q0 47 11 97H9q-5-24-6-48t-2-48q0-113 42-212t116-173t173-116t212-43q83 0 148 19t120 52t106 81t106 103q55-56 105-103t106-80t121-53t148-19q112 0 211 42t172 116t116 172t43 211q0 97-34 188t-97 167h-470l-101-102l-320 321l-448-449z" />
	</symbol>
	<symbol id="arrow-back" viewBox="0 0 512 512">
		<path fill="none" stroke="currentColor" stroke-linecap="round" stroke-linejoin="round" stroke-width="48" d="M244 400L100 256l144-144M120 256h292" />
	</symbol>
	<symbol id="success-icon" viewBox="0 0 48 48">
		<defs>
			<mask id="ipTSuccess0">
				<g fill="none" stroke="#fff" stroke-linecap="round" stroke-linejoin="round" stroke-width="4">
					<path fill="#555" d="m24 4l5.253 3.832l6.503-.012l1.997 6.188l5.268 3.812L41 24l2.021 6.18l-5.268 3.812l-1.997 6.188l-6.503-.012L24 44l-5.253-3.832l-6.503.012l-1.997-6.188l-5.268-3.812L7 24l-2.021-6.18l5.268-3.812l1.997-6.188l6.503.012z"/>
					<path d="m17 24l5 5l10-10"/>
				</g>
			</mask>
		</defs>
		<path fill="currentColor" d="M0 0h48v48H0z" mask="url(#ipTSuccess0)"/>
	</symbol>
</svg>